# xmcd CD database file
#
# Track frame offsets:
#	150
#	19307
#	35950
#	51950
#	67945
#	84405
#	101650
#	113760
#	124302
#	136210
#	147637
#	162425
#	175742
#	187635
#	198612
#	211322
#	223960
#	238377
#
# Disc length: 3323 seconds
#
# Revision: 3
# Processed by: cddbd v1.5.2PL0 Copyright (c) Steve Scherf et al.
# Submitted via: CDex 1.51
#
DISCID=170cf912
DTITLE=Various Artist - The Country Greats Disc 2
DYEAR=1900
DGENRE=Country
TTITLE0=Kenny Rogers - She Believes in me
TTITLE1=Kenny Rogers - Don't fall in love with a dreamer
TTITLE2=Kenny Rogers - Lucille
TTITLE3=Kenny Rogers - The Gamblers
TTITLE4=Kenny Rogers - You Decorated My Life
TTITLE5=Kenny Rogers - We've got tonight
TTITLE6=Dolly Parton - Nine To Five
TTITLE7=Dolly Parton - Love is like a butterfly
TTITLE8=Dolly Parton - Jolene
TTITLE9=Dolly Parton - Baby I'm Burnin
TTITLE10=Dolly Parton - You're the only one
TTITLE11=Dolly Parton - Here you come again
TTITLE12=Glen Campbell - Galveston
TTITLE13=Glen Campbell - Its only make believe
TTITLE14=Glen Campbell - I Knew Jesus
TTITLE15=Glen Campbell - Bonapartesretreat
TTITLE16=Glen Campbell - Rhinestone Cowboy
TTITLE17=Glen Campbell - Try A Little kindness
EXTD=
EXTT0=
EXTT1=
EXTT2=
EXTT3=
EXTT4=
EXTT5=
EXTT6=
EXTT7=
EXTT8=
EXTT9=
EXTT10=
EXTT11=
EXTT12=
EXTT13=
EXTT14=
EXTT15=
EXTT16=
EXTT17=
PLAYORDER=
